<svg id="Camada_1" data-name="Camada 1" xmlns="http://www.w3.org/2000/svg" viewBox="0 0 900 900"><defs><style>.cls-1{fill:#f8ece4;}.cls-2{fill:#0e0c0e;}.cls-3{fill:#d99ab7;}.cls-4{fill:#91bea7;}</style></defs><title>portfolio</title><rect class="cls-1" x="450" y="450" width="450" height="450"/><rect class="cls-2" y="374.97" width="450.7" height="525.03"/><rect class="cls-3" x="450.7" y="-3.32" width="450" height="620.91"/><rect class="cls-1" width="449" height="374.97"/><circle class="cls-2" cx="57.4" cy="67.4" r="44"/><polyline class="cls-4" points="512.9 762.2 576.8 900 449 900"/><polyline class="cls-4" points="642.7 762.2 706.59 900 578.8 900"/><polyline class="cls-4" points="770.49 762.2 834.39 900 706.59 900"/><polyline class="cls-4" points="900.29 762.2 964.19 900 836.39 900"/><circle class="cls-2" cx="57.4" cy="185.88" r="44"/><circle class="cls-2" cx="57.4" cy="304.36" r="44"/><rect class="cls-3" y="675" width="225" height="225"/><rect class="cls-1" x="64.23" y="616.59" width="225" height="225"/><rect class="cls-4" x="126.6" y="545.22" width="225" height="225"/><rect class="cls-1" x="194.01" y="486.81" width="225" height="225"/><circle class="cls-1" cx="101.4" cy="67.4" r="44"/><circle class="cls-4" cx="101.4" cy="185.88" r="44"/><circle class="cls-1" cx="101.4" cy="304.36" r="44"/><rect class="cls-4" x="239.04" width="211.59" height="374.97"/><circle class="cls-3" cx="384.84" cy="67.4" r="44"/><circle class="cls-3" cx="384.84" cy="185.88" r="44"/><circle class="cls-3" cx="384.84" cy="304.36" r="44"/><rect class="cls-4" x="480.52" y="332.74" width="388.8" height="284.85"/><circle class="cls-2" cx="675.5" cy="332.74" r="194.29"/><polyline class="cls-2" points="512.9 749.99 576.8 617.59 449 617.59"/><polyline class="cls-2" points="642.7 749.99 706.59 617.59 578.8 617.59"/><polyline class="cls-2" points="770.49 749.99 834.39 617.59 706.59 617.59"/><polyline class="cls-2" points="900.29 749.99 964.19 617.59 836.39 617.59"/></svg>